<?xml version="1.0" encoding="UTF-8" standalone="no"?>
<svg
   height="512px"
   id="Layer_1"
   style="enable-background:new 0 0 512 512;"
   version="1.1"
   viewBox="0 0 512 512"
   width="512px"
   xml:space="preserve"
   sodipodi:docname="logo.svg"
   inkscape:version="1.3 (0e150ed6c4, 2023-07-21)"
   xmlns:inkscape="http://www.inkscape.org/namespaces/inkscape"
   xmlns:sodipodi="http://sodipodi.sourceforge.net/DTD/sodipodi-0.dtd"
   xmlns="http://www.w3.org/2000/svg"
   xmlns:svg="http://www.w3.org/2000/svg"><defs
     id="defs1" /><sodipodi:namedview
     id="namedview1"
     pagecolor="#ffffff"
     bordercolor="#000000"
     borderopacity="0.25"
     inkscape:showpageshadow="2"
     inkscape:pageopacity="0.0"
     inkscape:pagecheckerboard="0"
     inkscape:deskcolor="#d1d1d1"
     inkscape:zoom="1.5878906"
     inkscape:cx="255.68512"
     inkscape:cy="248.44281"
     inkscape:window-width="1920"
     inkscape:window-height="1009"
     inkscape:window-x="1912"
     inkscape:window-y="-8"
     inkscape:window-maximized="1"
     inkscape:current-layer="Layer_1" /><path
     d="m 415.01239,230.2562 c 0,-1.33159 0.22193,-2.66316 0.22193,-3.99474 0,-71.35028 -58.58935,-130.050601 -129.60675,-130.050601 -51.15471,0 -95.2077,30.959141 -115.84712,74.346331 -8.98815,-4.54955 -18.97497,-7.10174 -29.73854,-7.10174 -32.84554,0 -60.031897,26.29864 -65.358201,57.70164 -39.059568,13.5377 -67.2445969,49.04639 -67.2445969,92.9884 0,55.26041 44.4968369,101.64365 99.4243579,101.64365 h 306.70638 c 49.93411,0 90.99104,-43.16526 90.99104,-93.54323 0,-50.59989 -39.2815,-91.87875 -89.5485,-91.98971 z m -1.99736,167.33473 -3.55088,0.44386 H 107.75119 c -45.384561,0 -82.3358,-38.72667 -82.3358,-84.44412 0,-35.39773 22.414866,-64.80337 55.704271,-76.3437 l 9.321032,-3.32895 1.664471,-9.76488 c 3.994728,-23.96837 24.523196,-43.60913 48.713496,-43.60913 7.65657,0 15.20217,1.77544 22.08198,5.32631 l 14.98023,7.5456 7.2127,-15.20216 c 18.42014,-38.72667 57.8126,-64.58144 100.31208,-64.58144 61.36347,0 111.96336,48.93542 111.96336,110.63178 0,14.75831 -0.22193,22.52583 -0.22193,22.52583 l 16.86663,0.11097 c 40.72404,0.55482 72.79283,33.84422 72.79283,74.79019 0,40.94596 -33.06747,75.67792 -73.79151,75.89984 z"
     id="path1"
     style="stroke-width:1.10965;fill:#ffffff" /><path
     d="m 278.64294,267.94858 c -4.96673,1.27586 -9.06769,1.95935 -13.25979,3.46304 -3.32634,0.86576 -6.69825,1.77708 -10.57138,2.77954 l -0.2734,0.0456 c -1.91378,0.54679 -2.09605,0.59236 -3.87313,-1.45812 -2.14162,-2.41502 -3.69087,-3.96427 -6.65268,-5.42239 -8.97656,-4.37436 -17.63415,-3.09851 -25.69938,2.14161 -9.66005,6.24258 -14.62678,15.49254 -14.49008,26.97524 0.1367,11.39157 7.92853,20.73266 18.77331,22.28191 10.02458,1.27586 18.13538,-2.09605 24.51466,-9.34109 0.95689,-1.18472 1.82265,-2.41501 2.77954,-3.782 v 0 0 c 0.36453,-0.45566 0.6835,-0.95689 1.04803,-1.50369 H 223.5533 c -2.96181,0 -3.69087,-1.82265 -2.68841,-4.23766 1.82265,-4.41993 5.24012,-11.80167 7.24504,-15.49253 0.41009,-0.8202 1.41255,-2.64285 3.14407,-2.64285 h 46.06751 c 2.05048,-6.10588 5.37682,-12.25733 9.84232,-18.08981 10.34354,-13.62432 22.46417,-20.73266 39.73379,-23.69447 14.49008,-2.55171 28.11439,-1.13915 40.50842,7.24504 11.20931,7.65514 18.13538,18.04425 20.0036,31.66857 2.41501,19.1834 -3.14408,34.76707 -16.72283,48.11799 -8.97655,9.52335 -20.45925,15.49253 -33.67348,18.18094 -2.55171,0.45566 -5.05785,0.68349 -7.51843,0.91133 -1.32142,0.0911 -2.59728,0.22783 -3.87314,0.36453 -12.89525,-0.2734 -24.69692,-3.96427 -34.63037,-12.48516 -6.97164,-6.06032 -11.80166,-13.48762 -14.17111,-22.09965 -1.68595,3.32634 -3.6453,6.56155 -6.37928,9.61449 -9.84231,13.48761 -23.19324,21.87181 -40.05276,24.10456 -13.94328,1.86821 -26.83854,-0.8202 -38.23011,-9.34109 -10.48024,-7.9741 -16.44942,-18.45434 -17.99868,-31.53186 -1.86821,-15.49254 2.68842,-29.80035 12.0295,-41.60202 10.11572,-13.21422 23.46664,-21.59841 39.77936,-24.56022 13.35092,-2.82511 26.10948,-0.86576 37.63775,6.97164 7.51844,4.96673 12.89526,11.7561 16.44943,20.0036 0.86576,1.27585 0.27339,2.00491 -1.41255,2.41501 z m -160.30217,2.55171 c -0.56958,0 -0.71084,-0.2734 -0.42833,-0.72906 l 2.98459,-3.82757 c 0.28252,-0.41009 0.99335,-0.68349 1.56293,-0.68349 H 173.157 c 0.54679,0 0.68349,0.4101 0.41009,0.82019 l -2.41501,3.69087 c -0.27339,0.45566 -1.00246,0.86576 -1.41255,0.86576 z m -21.440759,13.07752 c -0.56776,0 -0.70974,-0.31896 -0.42577,-0.72906 l 2.98158,-3.82756 c 0.28434,-0.4101 0.994259,-0.72907 1.560649,-0.72907 h 64.75879 c 0.5468,0 0.8202,0.45567 0.6835,0.86576 l -1.13916,3.41747 c -0.1367,0.5468 -0.68349,0.86576 -1.27586,0.86576 z m 33.935029,12.21177 c -0.28251,0.41009 -0.14126,0.82019 0.42377,0.82019 l 30.96228,0.1367 c 0.4101,0 1.00246,-0.4101 1.00246,-0.95689 l 0.2734,-3.41748 c 0,-0.59236 -0.2734,-1.00245 -0.86576,-1.00245 H 134.2434 c -0.56958,0 -1.1346,0.41009 -1.42167,0.86576 z m 228.50577,-8.20193 c -0.0911,-1.18473 -0.13669,-2.18719 -0.31896,-3.18964 -2.55171,-14.03442 -15.49253,-22.00852 -28.98016,-18.86444 -13.21422,2.9618 -21.73511,11.346 -24.83362,24.69692 -2.55171,11.0726 2.82511,22.28191 13.03196,26.83854 7.8374,3.41747 15.62923,3.00737 23.14767,-0.86576 11.2093,-6.19702 17.31518,-14.90018 18.04424,-27.11194 -0.0456,-0.54679 -0.0456,-1.04802 -0.0911,-1.50368 z"
     id="path1-5"
     style="stroke-width:0.455663;fill:#ffffff" /></svg>
